<svg xmlns="http://www.w3.org/2000/svg" viewBox="0 0 300 219.83" width="300px" height="300px"><path d="M205.67,91.51h-6.59c-16.73,0-33.47.09-50.21,0-7.24,0-8.75-2.69-6.09-9.49,3.15-8.05,5.63-16.39,9.22-24.22,1.26-2.74,4.95-6.17,7.56-6.19,44.71-.38,89.42-.28,134.13-.23,1.28,0,2.57.58,5.26,1.23L202.77,178.35c5.39.47,8.95,1.06,12.51,1,24.75-.13,49.5-.44,74.25-.6,9.11-.06,10.41,1.32,10.44,10.24,0,8.25-.12,16.51,0,24.76.07,4.3-1.44,6.13-6,6.13q-89.08-.16-178.16-.12c-1.69,0-3.39-.58-6.22-1.1L206.84,93.84Z" transform="translate(0 -0.08)" fill="#1ba286"/><path d="M23.63,219.64c3.35-9.58,6.12-17.71,9-25.78q11.27-31.14,22.62-62.23c7.53-20.77,16.51-41.17,22.08-62.45,4.33-16.54,13.69-19,28-17.63,9.54.94,19.24.05,28.87.16,6.55.07,7.54,1.83,5.27,8q-12.39,34-24.63,68c-.48,1.33-.07,3-.07,5.14,25.89-6.63,48.67-19.34,72.24-30l1.11,1.88c-5.86,7.42-11.65,14.91-17.61,22.25-5.77,7.1-12.14,13.74-17.44,21.15-4.43,6.21-10.57,8.18-17.31,9.71-10.22,2.32-20.87,3.69-30.41,7.67-4.07,1.69-6.48,8.68-8.5,13.72-4.74,11.82-8.67,24-13.24,35.86-.69,1.82-3,4.28-4.57,4.3C61.05,219.75,43,219.64,23.63,219.64Z" transform="translate(0 -0.08)" fill="#1ba286"/><path d="M0,38C8,25.44,15.09,14.07,22.66,3.05,23.87,1.27,27.37.25,29.82.24,89,.16,148.09-.23,207.22.64c16.3.24,33.09,3.12,45.6,15.65,4.6,4.6,8.11,10.38,11.68,15.9,2.37,3.67,1.81,6.67-3.55,6.67h-3.44q-123.78,0-247.54,0C7.15,38.83,4.34,38.36,0,38Z" transform="translate(0 -0.08)" fill="#1ba286"/></svg>